<?xml version="1.0" encoding="UTF-8"?>
<svg width="50px" height="32px" viewBox="0 0 50 32" version="1.1" xmlns="http://www.w3.org/2000/svg" xmlns:xlink="http://www.w3.org/1999/xlink">
    <title>amex</title>
    <g id="Page-1" stroke="none" stroke-width="1" fill="none" fill-rule="evenodd">
        <g id="amex">
            <rect id="Rectangle-11" fill="#5EC1EC" x="0" y="0" width="50" height="32" rx="4"></rect>
            <path d="M15.4518093,21.1152344 L13.3828204,21.1152344 L12.5603652,18.8437473 L8.79506256,18.8437473 L8.01758539,21.1152344 L6,21.1152344 L9.6689212,11.1152344 L11.6800812,11.1152344 L15.4518093,21.1152344 Z M11.9499493,17.1588906 L10.6520122,13.448113 L9.3797768,17.1588906 L11.9499493,17.1588906 Z M16.4349002,21.1152344 L16.4349002,11.1152344 L19.2813662,11.1152344 L20.9905309,17.9365168 L22.6804193,11.1152344 L25.5333108,11.1152344 L25.5333108,21.1152344 L23.7663172,21.1152344 L23.7663172,13.2434745 L21.8965167,21.1152344 L20.0652689,21.1152344 L18.2018938,13.2434745 L18.2018938,21.1152344 L16.4349002,21.1152344 Z M27.4223876,21.1152344 L27.4223876,11.1152344 L34.4068312,11.1152344 L34.4068312,12.8069124 L29.3243152,12.8069124 L29.3243152,15.0238292 L34.0534325,15.0238292 L34.0534325,16.7086859 L29.3243152,16.7086859 L29.3243152,19.4303776 L34.5867433,19.4303776 L34.5867433,21.1152344 L27.4223876,21.1152344 Z M35.2421373,21.1152344 L38.4612783,15.8969533 L35.5441326,11.1152344 L37.7673318,11.1152344 L39.6564085,14.3280584 L41.5069327,11.1152344 L43.7108556,11.1152344 L40.780859,15.9719874 L44,21.1152344 L41.7061211,21.1152344 L39.6178559,17.6568442 L37.5231654,21.1152344 L35.2421373,21.1152344 Z" id="AMEX" fill="#FFFFFF"></path>
        </g>
    </g>
</svg>