<?xml version="1.0" encoding="UTF-8"?>
<svg width="60px" height="16px" viewBox="0 0 60 16" version="1.1" xmlns="http://www.w3.org/2000/svg" xmlns:xlink="http://www.w3.org/1999/xlink">
    <title>paypal-logo</title>
    <g id="Web" stroke="none" stroke-width="1" fill="none" fill-rule="evenodd">
        <g id="booking" transform="translate(-410.000000, -1449.000000)" fill="#FFFFFF">
            <g id="Paypal-checkout" transform="translate(390.000000, 1324.000000)">
                <g id="PayPal-button" transform="translate(0.000000, 112.000000)">
                    <path d="M53.0518505,17.3663569 L50.8056056,17.3663569 C50.5907577,17.3663569 50.3897793,17.4715507 50.2694645,17.6476305 L47.1705502,22.1574262 L45.8575533,17.8236262 C45.7751028,17.5524431 45.5223907,17.3663569 45.2359836,17.3663569 L43.0281986,17.3663569 C42.7617022,17.3663569 42.5739124,17.6255995 42.6600217,17.8747516 L45.1331119,25.0498776 L42.806799,28.2936478 C42.6244548,28.5481815 42.808756,28.900257 43.1245185,28.900257 L45.3683809,28.900257 C45.5807612,28.900257 45.7799528,28.7973336 45.9014589,28.6248695 L53.3713569,17.9698549 C53.5500422,17.7148166 53.3659112,17.3663569 53.0518505,17.3663569 M38.0347092,21.6650082 C37.8186701,22.9268294 36.8053541,23.774266 35.5122679,23.774266 C34.8641506,23.774266 34.344857,23.5679146 34.0114812,23.1778314 C33.6811686,22.7912799 33.5565994,22.2400845 33.661343,21.6269164 C33.8623215,20.3757744 34.892485,19.5016819 36.1657457,19.5016819 C36.8005041,19.5016819 37.3156284,19.7097992 37.655556,20.1034141 C37.9979511,20.5000561 38.1327309,21.0542787 38.0347092,21.6650082 M41.1491947,17.3662728 L38.9144367,17.3662728 C38.7230732,17.3662728 38.559959,17.5035881 38.5299229,17.6909357 L38.4318161,18.3082241 L38.2759344,18.0846347 C37.7916121,17.3906582 36.712693,17.1581555 35.6355608,17.1581555 C33.166725,17.1581555 31.0576424,19.007498 30.6472617,21.6007651 C30.4336051,22.894792 30.7368597,24.1310505 31.4794249,24.9938752 C32.1612371,25.7865707 33.1342213,26.1166152 34.293719,26.1166152 C36.2842736,26.1166152 37.3877832,24.8535327 37.3877832,24.8535327 L37.2879747,25.4672053 C37.2506209,25.7002966 37.4329651,25.911441 37.6724034,25.911441 L39.6845705,25.911441 C40.004162,25.911441 40.2755084,25.68247 40.3254553,25.3709248 L41.5337085,17.8105085 C41.5710622,17.5773331 41.3881225,17.3662728 41.1491947,17.3662728 M27.7383495,17.4193322 C27.4831698,19.0748524 26.2038679,19.0748524 24.9661741,19.0748524 L24.2621539,19.0748524 L24.7561763,15.9837856 C24.7856169,15.7971108 24.948731,15.6597113 25.1400094,15.6597113 L25.4631746,15.6597113 C26.3056335,15.6597113 27.1010385,15.6597113 27.5114191,16.13363 C27.7569838,16.4173422 27.8310106,16.8382856 27.7382644,17.4193322 M79.610618,13.0999953 C79.8501415,13.0999953 80.0324856,13.3111397 79.9951319,13.544231 L79.9951319,13.544231 L78.1063428,25.3706725 C78.0569916,25.6823018 77.7850495,25.9118614 77.4660536,25.9118614 L77.4660536,25.9118614 L75.5393152,25.9118614 C75.3004724,25.9118614 75.1181283,25.700717 75.155482,25.4676257 L75.155482,25.4676257 L77.0707336,13.4247423 C77.1002592,13.2373947 77.2632883,13.0999953 77.4552474,13.0999953 L77.4552474,13.0999953 Z M27.1997409,13.099743 C28.7612805,13.099743 29.9376257,13.5076528 30.6013141,14.2783173 C31.2048451,14.9794412 31.4052279,15.9808426 31.1964213,17.2546042 C30.7331158,20.1690025 28.9586002,21.638941 25.8843615,21.638941 L25.8843615,21.638941 L24.4077399,21.638941 C24.0888291,21.638941 23.816802,21.8685006 23.7675359,22.1801299 L23.7675359,22.1801299 L23.2578572,25.3710089 C23.2079104,25.6820495 22.9364789,25.9115251 22.6175681,25.9115251 L22.6175681,25.9115251 L20.3887663,25.9115251 C20.1499236,25.9115251 19.9675794,25.7004648 20.0048481,25.4673734 L20.0048481,25.4673734 L21.8919354,13.6408479 C21.9418822,13.3293026 22.2132287,13.099743 22.5327351,13.099743 L22.5327351,13.099743 Z M71.322171,21.6650082 C71.1061319,22.9268294 70.0928159,23.774266 68.7997297,23.774266 C68.1516975,23.774266 67.6324039,23.5679146 67.2990281,23.1778314 C66.9681198,22.7912799 66.8441463,22.2400845 66.9488048,21.6269164 C67.1497833,20.3757744 68.1799468,19.5016819 69.4532075,19.5016819 C70.0880509,19.5016819 70.6030902,19.7097992 70.9431028,20.1034141 C71.285498,20.5000561 71.4202778,21.0542787 71.322171,21.6650082 M74.4367415,17.3662728 L72.2018985,17.3662728 C72.0106201,17.3662728 71.8475059,17.5035881 71.8173847,17.6909357 L71.719363,18.3082241 L71.5628857,18.0846347 C71.0790739,17.3906582 70.0002399,17.1581555 68.9231076,17.1581555 C66.4541868,17.1581555 64.3451893,19.007498 63.9348086,21.6007651 C63.721152,22.894792 64.0244065,24.1310505 64.7669718,24.9938752 C65.4486989,25.7865707 66.4217682,26.1166152 67.5812658,26.1166152 C69.5717354,26.1166152 70.6753301,24.8535327 70.6753301,24.8535327 L70.5754365,25.4672053 C70.5381678,25.7002966 70.7205119,25.911441 70.9599503,25.911441 L72.9721174,25.911441 C73.2916238,25.911441 73.5630553,25.68247 73.6130021,25.3709248 L74.8212554,17.8105085 C74.858524,17.5773331 74.6755843,17.3662728 74.4367415,17.3662728 M61.0258113,17.4193322 C60.7706316,19.0748524 59.4913297,19.0748524 58.2536359,19.0748524 L57.5496157,19.0748524 L58.0436381,15.9837856 C58.0731637,15.7971108 58.2361928,15.6597113 58.4274712,15.6597113 L58.7506364,15.6597113 C59.5930952,15.6597113 60.3885003,15.6597113 60.798966,16.13363 C61.0444456,16.4173422 61.1184724,16.8382856 61.0258113,17.4193322 M60.4872026,13.099743 L55.8201969,13.099743 C55.5006905,13.099743 55.229344,13.3293026 55.1793972,13.6408479 L53.292395,25.4673734 C53.2550412,25.7004648 53.437981,25.9115251 53.6763132,25.9115251 L56.0711221,25.9115251 C56.2943937,25.9115251 56.484566,25.7510015 56.5194522,25.5333824 L57.0549977,22.1801299 C57.1043488,21.8685006 57.3762909,21.638941 57.6952017,21.638941 L59.1718233,21.638941 C62.246062,21.638941 64.0205776,20.1690025 64.4838831,17.2546042 C64.6926897,15.9808426 64.4923069,14.9794412 63.8887759,14.2783173 C63.2250875,13.5076528 62.0487423,13.099743 60.4872026,13.099743" id="paypal-logo"></path>
                </g>
            </g>
        </g>
    </g>
</svg>