<?xml version="1.0" encoding="UTF-8"?>
<svg width="50px" height="32px" viewBox="0 0 50 32" version="1.1" xmlns="http://www.w3.org/2000/svg" xmlns:xlink="http://www.w3.org/1999/xlink">
    <title>visa</title>
    <g id="Page-1" stroke="none" stroke-width="1" fill="none" fill-rule="evenodd">
        <g id="visa">
            <rect id="Rectangle-4" fill="#F7F7F7" x="0" y="0" width="50" height="32" rx="4"></rect>
            <path d="M2.99653242,0 C1.34159326,0 0,1.34651712 0,3 L0,6 L50,6 L50,3 C50,1.34314575 48.6626208,0 47.0034676,0 L2.99653242,0 Z" id="Rectangle-5" fill="#575DC1"></path>
            <path d="M0,26 L0,29 C0,30.6568542 1.33737922,32 2.99653242,32 L47.0034676,32 C48.6584067,32 50,30.6534829 50,29 L50,26 L0,26 Z" id="Rectangle-6" fill="#EBAA3E"></path>
            <g id="Group" transform="translate(12.000000, 12.000000)" fill="#5565AF">
                <path d="M2.31415409,7.37333923 C2.65680418,6.44010787 2.89733442,5.8420283 3.03912066,5.57910051 L5.88750507,0 L7.97125651,0 L3.03912066,9.26901615 L0.837214024,9.26901615 L0,0 L1.94534105,0 L2.28123942,5.57910051 C2.29811874,5.7689928 2.30740236,6.05139673 2.30740236,6.42225475 C2.29727477,6.85803322 2.28461528,7.17533188 2.26773597,7.37333923 L2.31415409,7.37333923 L2.31415409,7.37333923 Z" id="Shape"></path>
                <polygon id="Shape" points="7.59569175 9.26901615 9.65328025 0 11.6644506 0 9.60686213 9.26901615"></polygon>
                <path d="M17.7823583,6.6640834 C17.7823583,7.54862443 17.4557436,8.24570768 16.8067339,8.75939068 C16.1560363,9.27307368 15.2740921,9.52950942 14.1625892,9.52950942 C13.1903407,9.52950942 12.4088284,9.33961713 11.8155205,8.95902104 L11.8155205,7.2215877 C12.6628621,7.67765381 13.4511261,7.90649837 14.1760927,7.90649837 C14.6672808,7.90649837 15.0529731,7.81804426 15.3297939,7.63707853 C15.6066146,7.45773581 15.745025,7.21266114 15.745025,6.8986085 C15.745025,6.71764277 15.7154862,6.55777618 15.6564086,6.41982024 C15.597331,6.28348731 15.5112465,6.15526943 15.4023749,6.03597812 C15.2918154,5.91749831 15.0200584,5.70326085 14.5845721,5.38920822 C13.9777607,4.96965986 13.5507141,4.55741505 13.30512,4.14598175 C13.0578381,3.73617145 12.935463,3.29471245 12.935463,2.82079322 C12.935463,2.2754615 13.0704976,1.78936969 13.3439425,1.35927176 C13.6156994,0.930796841 14.0030797,0.597268069 14.5077712,0.357873938 C15.0107748,0.119291313 15.5888914,0 16.2454967,0 C17.198334,0 18.0718386,0.209368426 18.8634785,0.627293774 L18.1444197,2.10423384 C17.4591195,1.79180421 16.8261452,1.63518364 16.2454967,1.63518364 C15.8792156,1.63518364 15.5812957,1.73012979 15.3492051,1.92083359 C15.1154266,2.11072588 14.9998033,2.3631041 14.9998033,2.67553373 C14.9998033,2.93359249 15.0723843,3.15919102 15.2175464,3.35070633 C15.3627085,3.54303314 15.6876354,3.79784587 16.1931708,4.11433303 C16.7240253,4.45273084 17.1232211,4.82602338 17.3865384,5.23339915 C17.6498557,5.64320945 17.7823583,6.11875169 17.7823583,6.6640834 L17.7823583,6.6640834 Z" id="Shape"></path>
                <path d="M24.0859385,7.10067338 L20.9674851,7.10067338 L19.8331951,9.30715691 L17.7232807,9.30715691 L22.7735718,0 L25.232888,0 L26.2017607,9.30715691 L24.2437601,9.30715691 L24.0859385,7.10067338 L24.0859385,7.10067338 Z M23.9863506,5.45250565 L23.8150255,3.23384953 C23.7702953,2.68040276 23.7491962,2.14562062 23.7491962,1.6295031 L23.7491962,1.40147005 C23.5550841,1.908661 23.3153978,2.44587766 23.0301374,3.01149702 L21.7903517,5.45250565 L23.9863506,5.45250565 L23.9863506,5.45250565 Z" id="Shape"></path>
            </g>
        </g>
    </g>
</svg>